<svg width="24" height="24" viewBox="0 0 24 24" fill="none" xmlns="http://www.w3.org/2000/svg">
<path fill-rule="evenodd" clip-rule="evenodd" d="M18.9721 6.57214C19.0577 6.48672 19.1255 6.38531 19.1718 6.27367C19.2182 6.16203 19.242 6.04237 19.2421 5.9215C19.2422 5.80064 19.2184 5.68094 19.1723 5.56925C19.1261 5.45756 19.0583 5.35605 18.9729 5.27054C18.8875 5.18502 18.7861 5.11716 18.6745 5.07084C18.5628 5.02452 18.4432 5.00064 18.3223 5.00057C18.2014 5.00049 18.0817 5.02422 17.97 5.07041C17.8584 5.11659 17.7569 5.18432 17.6713 5.26974L12.1209 10.8201L6.57214 5.26974C6.39943 5.09703 6.16518 5 5.92094 5C5.67669 5 5.44244 5.09703 5.26974 5.26974C5.09703 5.44244 5 5.67669 5 5.92094C5 6.16518 5.09703 6.39943 5.26974 6.57214L10.8201 12.1209L5.26974 17.6697C5.18422 17.7553 5.11638 17.8568 5.0701 17.9685C5.02382 18.0802 5 18.2 5 18.3209C5 18.4419 5.02382 18.5616 5.0701 18.6734C5.11638 18.7851 5.18422 18.8866 5.26974 18.9721C5.44244 19.1448 5.67669 19.2419 5.92094 19.2419C6.04187 19.2419 6.16163 19.218 6.27336 19.1718C6.3851 19.1255 6.48662 19.0577 6.57214 18.9721L12.1209 13.4217L17.6713 18.9721C17.844 19.1446 18.0782 19.2415 18.3223 19.2413C18.5664 19.2412 18.8004 19.144 18.9729 18.9713C19.1454 18.7986 19.2423 18.5645 19.2421 18.3204C19.242 18.0763 19.1448 17.8422 18.9721 17.6697L13.4217 12.1209L18.9721 6.57214Z" fill="#212121"/>
</svg>
