<svg width="28" height="28" viewBox="0 0 28 28" fill="none" xmlns="http://www.w3.org/2000/svg">
<path d="M4.66667 10.5H23.3333L22.3592 21.2112C22.3065 21.7909 22.039 22.33 21.6092 22.7226C21.1795 23.1153 20.6185 23.3331 20.0363 23.3333H7.96367C7.38155 23.3331 6.82054 23.1153 6.39077 22.7226C5.961 22.33 5.69352 21.7909 5.64084 21.2112L4.66667 10.5Z" stroke="#212121" stroke-width="1.5" stroke-linejoin="round"/>
<path d="M9.33334 12.8333V9.33334C9.33334 8.09566 9.82501 6.90868 10.7002 6.03351C11.5753 5.15834 12.7623 4.66667 14 4.66667C15.2377 4.66667 16.4247 5.15834 17.2998 6.03351C18.175 6.90868 18.6667 8.09566 18.6667 9.33334V12.8333" stroke="#212121" stroke-width="1.5" stroke-linecap="round"/>
</svg>
